<?xml version="1.0" encoding="utf-8"?>
<!-- Generator: Adobe Illustrator 23.0.3, SVG Export Plug-In . SVG Version: 6.00 Build 0)  -->
<svg version="1.1" id="Calque_1" xmlns="http://www.w3.org/2000/svg" xmlns:xlink="http://www.w3.org/1999/xlink" x="0px" y="0px"
	 viewBox="0 0 1000 220" style="enable-background:new 0 0 1000 220;" xml:space="preserve">
<style type="text/css">
	.st0{fill:#FFC10E;}
</style>
<title>-</title>
<path class="st0" d="M103.3,120.1c-13.3-4-27-6.6-40.8-7.7C40.3,110.6,17.2,113,9,114c1.6,10.8,4.6,21.4,8.8,31.6l14.9-2.8
	c7.7-1.1,15.4-1.7,23.1-1.9c5.6-0.2,11.3-0.1,16.9,0.4l-2.8-10.5c44.5,0,80.6,16.6,105,32.4l19.7,14.4l0.1,0.1
	c3.5-4.7,6.8-9.5,9.8-14.6c-44.8-39.8-104-58-104-58L103.3,120.1z M76.6,55.6l-0.1,13.6c-19.4-7.3-39.6-12.6-60.1-15.7
	c-1.1-0.1-2.1-0.2-3.1-0.3c-0.3,1.1-0.5,2.3-0.8,3.4C10.5,64.3,9.1,72,8.2,79.9c2.2,0.1,4.3,0.2,6.4,0.3l20.1,1.6
	c9.2,1,17.3,2.4,24.1,3.8c16.8,3.4,25.5,7,25.5,7l-0.5-11.1c37.7,11.2,68.6,30.8,92,50.4l19.6,17.8c3.8,3.7,7.2,7.3,10.4,10.8
	c2.9-5.1,5.5-10.4,7.8-15.8C160.6,84.2,76.6,55.6,76.6,55.6z M27,25.7c5.9,1.6,9.5,2.7,9.5,2.7c2.6,0.9,5,1.8,7.3,2.7
	c10.2,3.8,15.8,6.5,15.8,6.5V24.8c51.2,19.3,90,48.6,117.4,75.1l19.5,20.5c7.3,8.3,13.3,15.9,18,22.3C258,30.3,82.2-39.6,27,25.7z
	 M87.6,150.6l2.9,11.1c-17.6,0.1-35,2.9-51.7,8.3c-2,0.7-4,1.4-6.1,2.1c38.1,52.5,111.2,70.3,160.8,6.9c-3.3-2.1-7.1-4.4-11.6-6.8
	C137.2,148.6,87.6,150.6,87.6,150.6z"/>
<path class="st0" d="M385.4,82.7c-1.9,8-6.8,15.3-14.7,21.8c-7.6,5.3-15.1,10.6-22.7,15.8c0.4,2.2,2,3.9,4.6,5
	c2.6,1.1,5.1,2.2,7.5,3.2c12.3,8,18.5,17.5,18.5,28.5c0,8.5-2.9,16.2-8.7,23.4c-4.5,5.5-11.1,10.9-19.8,16.2l-21.4,12.5
	c-1.8,1-3.8,1.6-5.8,1.6c-4.9,0-8.3-2-10.2-6c0.3-12.5,0.6-24.9,0.9-37.2c0.1-12.3,1-24.5,2.5-36.7c-3.1-2.1-4.7-4.5-4.7-7.1
	c0-1.4,0.6-2.7,1.7-3.7c1.4-1.4,2.9-2.6,4.6-3.7c1.8-20.7,2.1-41.6,1.1-62.3c-7-1.3-11.6-4.5-13.8-9.3c-0.1-1,0.2-1.9,0.8-2.7
	c0.6-0.9,0.9-1.9,1-2.9c3.3-2.5,7.3-3.8,11.3-3.8c3,0,9.8,1,20.5,2.9c6,1.1,11.8,3.1,17.1,6c16,8.3,25.4,16.4,28.3,24.3
	C385.8,74,386.3,78.8,385.4,82.7z M357.8,158.8c0.3-1.5,0.4-3.1,0.4-4.7c0-4.3-1.5-8.5-4.2-11.8c-7.6-3.7-12.4-5.6-14.5-5.6
	c-1.1,0-2.3,0.2-3.3,0.7c0.1,1.5,0.2,3.1,0.2,4.9c-0.1,4.8-0.5,9.6-1.2,14.4c-0.7,4.8-1.1,9.7-1.2,14.6c-0.1,4.4,0.5,8.7,1.8,12.9
	c2.4-2.6,5.2-4.8,8.4-6.6c3.8-2.3,6.4-4.3,7.9-6.1C354.7,168.3,356.6,164.1,357.8,158.8z M364.5,71.5c-0.7-5.5-5.2-9.7-13.4-12.7
	c-1.9-0.8-3.8-1.8-5.6-2.9c-1.3-1-2.8-1.6-4.5-1.8c-0.7,0-1.4,0.2-2,0.4c-0.2,2.5-0.2,5.2-0.2,8c0,3.9,0.3,10.4,0.9,19.6
	c0.5,8.5,0.6,15.1,0.5,19.8c1,0,2.6-0.8,4.7-2.3c2.1-1.6,3.3-2.4,3.6-2.6c4.8-2.4,8.9-6,11.8-10.5C363.7,81.7,365.1,76.7,364.5,71.5
	z"/>
<path class="st0" d="M456.7,81.1c-6.6,3-13.3,5.6-20.2,7.7c-6.9,2.2-13.6,4.8-20.2,7.7c-1.1,3.8-1.8,12.2-2.2,25.2
	c2.2,0.9,4.5,1.3,6.8,1.3c2.9-0.2,5.8-0.5,8.7-1.2c2.9-0.6,5.8-1,8.7-1.2c3.2-0.1,6.3,0.8,8.9,2.5c1.8,2.9,2.6,4.8,2.6,5.6
	c0,1-0.5,1.9-1.3,2.4c-0.9,0.9-1.8,1.9-2.6,3c-0.8,1.2-2.2,1.9-3.7,1.8c-2.6,0.7-7.4,1.2-14.3,1.4c-5.8,0.2-10.4,1.1-13.9,2.7
	c-2.3,10.7-3.4,19.2-3.3,25.4c-0.1,3.4,0.4,6.8,1.5,10c5.8,4.7,15.9,6.7,30.3,5.9c1.2-0.1,2.3-0.7,3.1-1.6c0.7-0.9,1.7-1.4,2.8-1.6
	c3.5-0.9,5.8,2.1,6.9,9.1c0.4,2.2,0,4.4-1,6.4c-0.8,1.8-2.5,3-4.5,3.2c-15,0.7-28-0.6-39-3.9c-3.8-1.2-7.1-3.5-9.5-6.6
	c-2.8-3.3-4.5-7.4-4.9-11.7c-1.2-11.2-1.3-22.6-0.2-33.8c-3.5-2.7-5-5.4-4.7-8c0.1-1.3,1.1-2.5,2.9-3.6c1.8-1.1,2.8-2.2,3-3.4
	c0.3-1.2,0.8-8,1.4-20.6c-6.9-1.5-10.4-4.5-10.3-9c0.1-4.2,2.2-7.5,6.4-10l11.8-5.8c5.5-3.1,11.3-5.7,17.4-7.5
	c5.9-1.9,11.9-3.8,18-5.6c0.7-0.2,1.5-0.2,2.2-0.2c3.3,0,7.2,1.5,11.7,4.5c0.1,0.6,0.4,1.7,1,3.2c0.4,1.1,0.7,2.3,0.8,3.5
	C458,79.3,457.6,80.4,456.7,81.1z"/>
<path class="st0" d="M536,171.6c0.7,1.7,1.1,3.5,1.1,5.3c0,2.6-1.2,5-3.2,6.6c-2.1,1.9-3.5,2.8-4.3,2.6c-6.1-1.1-10-6.1-11.6-14.9
	c-1.4-8.2-3.4-16.2-6.2-24l-12.7,1.1c-4.9,0.6-8.7,2.1-11.4,4.5c-1.4,3.9-3.2,10.8-5.4,20.8c-2.1,9.2-4.2,16.2-6.2,21
	c-1,2.3-3.1,2.9-6.4,1.9c-4.1-1.4-6.3-3.3-6.5-5.7c-0.4-4.8,1-11.2,4.1-19.3c3.7-9.2,5.8-15.8,6.2-19.7c0.1-1.1-0.7-2.4-2.4-3.8
	s-2.6-2.5-2.6-3.2c0-0.7,0.3-1.5,0.8-2c0.6-0.7,1.9-1.3,3.9-1.7s3.2-1.1,3.5-2c2.2-6.3,5.8-18,10.6-35.2c4.1-14.9,7.8-26.3,11-34.2
	c0.7-1.8,2.3-2.7,4.7-2.7c1.7,0,3.4,0.6,4.7,1.7c3.5,3,5.7,7.6,6.7,13.6c0.7,5.2,1.4,10.3,2,15.5C522.8,127.8,529.3,152.3,536,171.6
	z M508.7,135.5c-0.5-5.3-1.3-10.5-2.4-15.7c-1.2-5-2.4-10.1-3.5-15.1c-3.7,10.5-7,20.9-9.7,31.4
	C495.1,135.7,500.3,135.5,508.7,135.5L508.7,135.5z"/>
<path class="st0" d="M625.6,185c0.4,0.5,0.6,1.1,0.6,1.7c0,3-3.3,5.2-9.8,6.8c-7.2-5.3-16.1-13.5-26.8-24.4
	c-11.9-12.3-20.8-20.8-26.7-25.6c-0.4,3.3-1.1,12.1-2.2,26.3c-0.7,10.7-1.9,19.2-3.7,25.5c-0.9,0.2-1.7,0.6-2.5,1
	c-1.1,0.6-2.3,0.8-3.6,0.6c-6-1.3-9-5.2-9-11.8c0.1-2.6,0.3-5.2,0.8-7.8c0.5-3.7,0.9-6.1,1-7c0.5-7.5,0.9-16.4,1-26.7v-21.1
	c0-17.5,1-32.3,3-44.3c1.3-8,9.3-11.7,23.8-11c7.3,0.3,13.7,3.8,19.1,10.5c5,6.2,7.5,12.9,7.5,20.1c0,6.1-2.4,12.1-7.1,18.2
	c-4,5.3-9.1,9.7-15,12.8c-2.4,1.3-3.7,2.7-3.7,4.3c0,1.7,1.4,3.7,4.3,6l6.5,5c0.1,0.1,7.6,6.6,22.4,19.4
	C615,171.5,621.7,178.6,625.6,185z M582.7,98.1c0.4-2,0.5-4.1,0.4-6.2c-0.4-2.8-1.7-5.3-3.6-7.3c-2-2.2-5.1-3.3-9.5-3.3
	c-3.2,0-5.3,1-6.1,2.9c-0.7,3.6-1,7.3-1,11c0,1.7,0.2,6,0.6,13c0.3,4.3,0.3,8.7,0,13C574.8,113.1,581.2,105.4,582.7,98.1L582.7,98.1
	z"/>
<path class="st0" d="M660.5,44.3c0,3.1-2.2,5.8-6.5,8.2c-1.2,0.6-2.5,0.7-3.8,0.2c-2.1-0.6-3.2-0.9-3.3-0.9c-1,0.1-2,0.6-2.7,1.4
	c-8,8.4-12,18.7-12,30.8c0,4.3,0.6,8.6,2,12.6c0.6,1.7,6.2,13.8,16.9,36.2c7.1,14.9,10.7,27.6,10.7,38.1c0,8.6-2.1,17.1-6,24.8
	c-1.3,2.7-4.7,6.1-10,10.3c-4.3,3.3-8.2,4.9-11.6,4.9c-1.3,0-2.6-0.2-3.8-0.7c-4.4-2-6.7-4.6-6.7-7.7c0-1.9,1.1-4.1,3.3-6.8
	c0.6-0.8,2-1.2,4.2-1.4c1.9,0,3.7-1.1,4.5-2.8c3.1-6.6,4.6-13.7,4.7-21c0-10.1-4.8-24.8-14.4-44.1c-9.6-19.2-14.4-34.6-14.4-46.2
	c-0.2-8.8,1.7-17.5,5.3-25.5c4-8.6,9.7-14.7,17.1-18.5c3.1-1.6,6.5-2.5,10-2.6c6.2,0,10.9,1.8,14,5.4
	C659.6,40.6,660.4,42.4,660.5,44.3z"/>
<path class="st0" d="M750.4,75.4c-1.3,4.4-3.5,6.9-6.6,7.6c-8.1,1.7-22.2,3.8-42.2,6.3c-3.6,30.7-5.7,56.3-6.5,76.8
	c-0.3,7.8-0.4,15.5-0.5,23c0.1,1.8-0.1,3.6-0.6,5.4c-0.7,2-1.9,2.8-3.8,2.6c-3.5-0.2-6.7-2-8.7-4.9c-2.2-2.8-3.4-6.3-3.5-9.9
	c-0.1-4.6,0-9.4,0.1-14.5c0.3-8.2,1.3-21,3-38.7c1.7-16.9,2.7-29.8,2.9-38.7c-4.6-0.3-9.3-0.2-13.9,0.4c-4.7,0.6-9.4,1-14.1,1
	c-6.1-0.2-10.9-2-14.7-5.4c-1.4-3.3-2-5-2-5.1c0.1-1.1,0.6-2,1.4-2.8c4-1.2,12.1-2.2,24.4-2.9c10.8-0.7,18.9-2.4,24.3-5.1
	c4.7,1.7,9.7,2.7,14.8,2.8c5.4,0.2,10.8-0.3,16-1.5c3.8-0.5,7.6-1.2,11.4-2.2c3.7-0.9,7.4-1.2,11.2-0.7c2.2,0.1,3.1,1,2.7,2.9
	C748.9,72,750.5,73.1,750.4,75.4z"/>
<path class="st0" d="M815.4,75.3c-0.9,9.3-3.5,21.7-7.7,37.2c-5.8,20.8-9.1,33.4-10,37.7c-2.8,13.2-8.3,25.7-16.2,36.6
	c-5,7-10.8,10.5-17.4,10.3c-5.8-0.1-10.1-3.9-12.9-11.3c-4.9-12.4-7.3-27.1-7.3-43.9c0.2-12.5,1.1-25,2.7-37.3
	c-0.1,1.3-0.2-2.8-0.2-12.3c0-8.2,3.1-12.3,9.3-12.3c1.4,0,2.9,0.4,4.2,1.1c1.5,0.7,2.9,1.5,4.3,2.3c0.1,6.8-0.1,16.7-0.6,29.8
	c-0.7,14-1,24.2-1,30.4c0,6.6,0.2,12.7,0.6,18.1c0.3,2.8,1.4,8.1,3.5,15.9c5.4-6.2,9.7-14.5,12.7-24.8c1-3.4,3.1-12.8,6.2-28.2
	c2.5-11.6,5.2-20.8,8.3-27.4c0.9-1.9,1.7-5.4,2.3-10.5s1.4-8.7,2.3-10.7c1.2-3,4.1-4.9,7.3-4.8C810.3,70.9,813.5,72.4,815.4,75.3z"
	/>
<path class="st0" d="M875.9,140.3c-1.4,3.3-2.7,6.5-3.9,9.8c-1.3,3.3-3.1,6.3-5.3,9.1c-4.2,5.5-8.3,10.9-12.5,16.3
	c-5,6.5-9.5,11-13.5,13.5c-1.3,1.7-2.8,3.5-4.4,5.3c-1.6,1.8-3.2,2.7-4.8,2.7c-1,0-1.9-0.3-2.8-0.7c-1.1-0.4-2.2-1-3.5-1.5
	c-1.2-0.5-2.2-1.5-2.7-2.7c-0.3-6-0.5-12.3-0.4-19.1c0.1-6.9,0.4-17.3,1.1-31.1c0.6-13.8,1-24.1,1.1-31c0.1-9.2-0.2-17.7-0.8-25.3
	l-4.3-4.9c-1.7-1.9-2.6-3.6-2.5-5.1c0-0.8,0.1-1.5,0.4-2.2c0.7-1.7,2.1-2.7,4.4-2.9c1.7-0.3,3.5-0.5,5.2-0.6
	c11.1,2.7,22.8,9.4,34.9,20.3c3,2.6,5.6,5.7,7.7,9c6.3,10.1,9.4,19.6,9.3,28.4C878.5,131.8,877.6,136.2,875.9,140.3z M861.7,117.4
	c-1.1-8.9-8.2-16.9-21.1-23.8c-1.1,23.7-1.6,48.8-1.5,75.3c15.2-15.9,22.8-31.1,22.9-45.5C862.1,121.4,862,119.4,861.7,117.4z"/>
<path class="st0" d="M903.8,78.7c0.3,4.2,0.4,8.5,0.4,12.9c0,9.8-1,24.5-3,44.1s-3,34.5-3,44.6c0,3.7,0.1,7.4,0.2,11
	c-1.3,4-4.1,5.9-8.4,5.8c-6.2-0.3-9.6-3-10.1-8c-0.6-5.3-0.9-10.6-0.9-15.9c0-9.8,1.2-24.3,3.6-43.7s3.5-33.9,3.5-43.4
	c0-3.7-0.1-7.4-0.4-11c1.4-2.7,3.9-4.1,7.3-4.1c2.9,0,5.7,0.9,8.2,2.4c0.4-0.3,0.8-0.6,1.3-0.7c0.4,0,0.6,0.7,0.6,2.2
	c-0.2,1-0.2,2,0,3C903.3,78.2,903.5,78.5,903.8,78.7z"/>
<path class="st0" d="M993.2,153.3c-10.1,24.1-24.3,38.5-42.7,43c-2.2,0.5-4.4,0.8-6.6,0.8c-9.7,0-19.5-5.6-29.4-16.9
	c-6.7-7.6-10-17.5-10-29.6c0-13.4,3.8-27.8,11.2-43.2c3-6.2,7-11.9,11.8-16.9c5.3-5.7,10.3-8.5,15.1-8.5c2.9,0.1,5.6,1.2,7.7,3.3
	c2.4,2.2,8.8,5.1,19.2,8.7c8.2,2.9,14,7.8,17.4,14.7c6,12.1,9,22.6,9,31.3C995.8,144.5,994.9,149.1,993.2,153.3z M972.7,136.4
	c-1.2-13.2-4.5-21.1-10-23.7c-0.7-0.3-1.5-0.5-2.3-0.5c-2.1,0-4.6,1.8-7.7,5.4c-3.4,4.2-6.1,6.6-7.9,7.3c-1.2,0.6-2.9,0-5.1-1.6
	s-3.7-2.4-4.3-2.4c-0.5,0-1,0.2-1.3,0.5c-6,5.4-8.9,13.9-8.9,25.3c0,7.8,1.7,14.4,5.1,19.9c4.8,7.4,8.8,11.1,12,11.1
	c7.5,0,14.7-5,21.7-15C970.7,153.4,973.6,144.6,972.7,136.4z"/>
</svg>
