<svg xmlns="http://www.w3.org/2000/svg" viewBox="0 0 1000 480.8"><defs><style>.cls-1{fill:#fff;}.cls-2{fill:#0096c8;}</style></defs><g id="Calque_2" data-name="Calque 2"><g id="Logos"><g id="BLEU-CYAN"><path class="cls-1" d="M347.4,218.8H340V100.2h7.4c43.2,0,69.9,18.4,69.9,61.6,0,39.5-30.4,57-69.9,57M342.8,4.6H227V212.4H129.6V4.6H0V310.7H372.2c95.6,0,149.8-57.9,149.8-148C522.1,49.6,452.2,4.6,342.8,4.6"/><path class="cls-2" d="M936.6,216.9c-35.8,0-66.2-25.7-66.2-59.7,0-33.1,29.4-59.7,64.3-59.7,24.8,0,46.9,11.9,65.3,26.7V11.9C975.2,3.6,947.6,0,921.9,0c-95.6,0-171,71.7-171,160.8a155.93,155.93,0,0,0,9.2,51.5H656.2V4.6H537.7V310.7H769.3V232.5c27.6,49.6,82.7,82.7,148,82.7,21.1,0,63.4-3.7,82.7-11.9V193.1c-18.4,14.7-38.6,23.8-63.4,23.8"/><rect class="cls-2" y="359.1" width="1000" height="121.7"/><path class="cls-1" d="M360.6,454.9l-13.5-19.5H332.2v19.5H316v-70h30.3a37.92,37.92,0,0,1,16.1,3.1,23.52,23.52,0,0,1,10.5,8.8,24,24,0,0,1,3.7,13.5,22.73,22.73,0,0,1-3.8,13.4,23.51,23.51,0,0,1-10.6,8.7l15.7,22.5Zm-4.1-53.6c-2.5-2.1-6.2-3.1-11.1-3.1H332.2v24.4h13.2c4.9,0,8.6-1.1,11.1-3.2s3.8-5.1,3.8-9S359,403.4,356.5,401.3Z"/><path class="cls-1" d="M403.8,451.4a35,35,0,0,1-13.7-13,35.38,35.38,0,0,1-5-18.5,34.23,34.23,0,0,1,5-18.5,35.71,35.71,0,0,1,13.7-13,43.43,43.43,0,0,1,39.3,0,35,35,0,0,1,13.7,13,35.73,35.73,0,0,1-13.7,50,40.85,40.85,0,0,1-19.6,4.7A38.82,38.82,0,0,1,403.8,451.4Zm30.8-11.9a20.27,20.27,0,0,0,7.9-8,24.65,24.65,0,0,0,0-23.2,20.26,20.26,0,0,0-7.9-8,23.08,23.08,0,0,0-22.4,0,20.27,20.27,0,0,0-7.9,8,24.65,24.65,0,0,0,0,23.2,20.26,20.26,0,0,0,7.9,8,23.08,23.08,0,0,0,22.4,0Z"/><path class="cls-1" d="M481.6,447.9c-5.6-5.5-8.3-13.4-8.3-23.7V385h16.2v38.6c0,12.5,5.2,18.8,15.6,18.8,5.1,0,8.9-1.5,11.6-4.6s4-7.8,4-14.2V385h16v39.2q0,15.45-8.4,23.7c-5.6,5.5-13.4,8.3-23.4,8.3S487.2,453.4,481.6,447.9Z"/><path class="cls-1" d="M606.9,441.9v13H552.7v-70h52.9v13H568.8v15.2h32.5v12.6H568.8v16.2Z"/><path class="cls-1" d="M684,384.9v70H670.7l-34.9-42.5v42.5h-16v-70h13.4L668,427.4V384.9Z"/></g></g></g></svg>