<svg xmlns="http://www.w3.org/2000/svg" xmlns:xlink="http://www.w3.org/1999/xlink" viewBox="0 0 517.87 181.85"><defs><style>.cls-1{fill:#1f3590;}.cls-2{fill:url(#Dégradé_sans_nom_4);}.cls-3{fill:#89b3e5;}.cls-4{fill:#edf0f4;}.cls-5{opacity:0.1;}.cls-6{fill:#b81a68;}.cls-7{fill:#ad135f;}.cls-8{fill:#fce3e9;}</style><linearGradient id="Dégradé_sans_nom_4" x1="312.47" y1="146.88" x2="394.84" y2="146.88" gradientUnits="userSpaceOnUse"><stop offset="0" stop-color="#5c82d7"/><stop offset="1" stop-color="#5153da"/></linearGradient></defs><title>logowhite_1</title><g id="Calque_2" data-name="Calque 2"><g id="Calque_1-2" data-name="Calque 1"><path class="cls-1" d="M384.61,146.88c-7.55-4.4-18.61-7.18-30.95-7.18s-23.4,2.78-31,7.18H312.47v13.9c0,11.63,18.44,21.07,41.19,21.07s41.18-9.44,41.18-21.07v-13.9Z"/><ellipse class="cls-2" cx="353.66" cy="146.88" rx="41.19" ry="21.07"/><path class="cls-3" d="M359.12,147.87V129.73l-43.24,25a3.28,3.28,0,0,0-.31.2c3.13,3.89,8.48,7.2,15.24,9.51l28.64-16.54Z"/><path class="cls-4" d="M344.23,60.54h19.85a0,0,0,0,1,0,0v84a5.31,5.31,0,0,1-5.31,5.31h-9.24a5.31,5.31,0,0,1-5.31-5.31v-84a0,0,0,0,1,0,0Z"/><path class="cls-5" d="M344.23,87.64c0,2.67,19.85-.31,19.85-3.79V60.54H344.23Z"/><circle class="cls-6" cx="353.66" cy="35.23" r="35.23"/><path class="cls-7" d="M362.15,59.43c-21.34,0-38.63-15.78-38.63-35.23a32.52,32.52,0,0,1,1.36-9.29,35.23,35.23,0,1,0,59,38.4A41.07,41.07,0,0,1,362.15,59.43Z"/><circle class="cls-8" cx="368.09" cy="22.5" r="9.76"/><path class="cls-4" d="M0,121H21.6c0,5.16,2.52,9.48,9.24,9.48,7.08,0,9.24-5.52,9.24-10.68V85.7H15.84V65.9H63.12V121c0,19.8-13.08,30.36-31.92,30.36C9.48,151.33,0,138.25,0,121Z"/><path class="cls-4" d="M72.72,118c0-18.72,13.44-33.47,34.8-33.47,21,0,34.8,14.75,34.8,33.47s-13.8,33.48-34.8,33.48S72.72,136.69,72.72,118Zm46.8,0c0-7.8-5.16-13.08-12-13.08s-12,5.28-12,13.08,5.16,13.08,12,13.08S119.52,125.77,119.52,118Z"/><path class="cls-4" d="M151.08,157.69h8.4c4.56,0,7.2-2.76,8.64-6.6l.36-1-25-64.07H166.8l11.64,34.79h1.08L190,86.06H213.6l-25.68,70.67c-4.8,13.08-13,20.76-27.72,20.76h-9.12Z"/><path class="cls-4" d="M215.4,129.85h20.28c.24,3.12,3.24,4.8,8.16,4.8s7.68-1.32,7.68-3.72c0-8.88-35.16,3.24-35.16-25.08,0-10.79,9-21.35,27.48-21.35,16.08,0,27.12,7.2,27.84,21.23H252.6c-.6-3-3.24-5-8.4-5-4.8,0-7.68,1.55-7.68,4.07,0,7.8,36.72-4.19,36.72,25,0,12.36-9.84,21.72-29.4,21.72S215.52,143.29,215.4,129.85Z"/><path class="cls-4" d="M290,126.49v-23h-9.6V86.3h4.68c4,0,6.12-2.76,6.12-6.72V69.38H312.6V86.06H328v17.39H312.6v21.72c0,3.84,2.76,6.36,7.44,6.36H328v18.36H313.68C298.92,149.89,290,141,290,126.49Z"/><path class="cls-4" d="M373.64,118c0-18.72,12.84-33.47,34.19-33.47,19.44,0,31.92,11.87,33.12,28h-22.8a10.27,10.27,0,0,0-10.32-7.56c-7.2,0-11.4,5.88-11.4,13.08s4.2,13.08,11.4,13.08c5.16,0,8.64-2.88,9.84-6.48h23c-1.56,15.48-13.8,26.88-32.88,26.88C386.83,151.45,373.64,136.69,373.64,118Z"/><path class="cls-4" d="M492.67,149.89l-11.4-24-7.56,8.52v15.48H451.15v-90h22.56v44.39h.72l14.28-18.23h27.6l-19.44,22.07,21,41.76Z"/></g></g></svg>