<svg xmlns="http://www.w3.org/2000/svg" xmlns:xlink="http://www.w3.org/1999/xlink" viewBox="0 0 517.87 181.85"><defs><style>.cls-1{fill:none;}.cls-2{fill:#1f3590;}.cls-3{clip-path:url(#clip-path);}.cls-4{fill:#5c82d7;}.cls-5{fill:#5c81d7;}.cls-6{fill:#5c80d7;}.cls-7{fill:#5b7fd7;}.cls-8{fill:#5b7ed7;}.cls-9{fill:#5b7dd7;}.cls-10{fill:#5b7cd7;}.cls-11{fill:#5a7bd7;}.cls-12{fill:#5a7ad8;}.cls-13{fill:#5a79d8;}.cls-14{fill:#5a78d8;}.cls-15{fill:#5977d8;}.cls-16{fill:#5976d8;}.cls-17{fill:#5975d8;}.cls-18{fill:#5974d8;}.cls-19{fill:#5873d8;}.cls-20{fill:#5872d8;}.cls-21{fill:#5871d8;}.cls-22{fill:#5870d8;}.cls-23{fill:#576fd8;}.cls-24{fill:#576ed8;}.cls-25{fill:#576dd8;}.cls-26{fill:#576cd8;}.cls-27{fill:#576bd9;}.cls-28{fill:#5669d9;}.cls-29{fill:#5668d9;}.cls-30{fill:#5667d9;}.cls-31{fill:#5666d9;}.cls-32{fill:#5565d9;}.cls-33{fill:#5564d9;}.cls-34{fill:#5563d9;}.cls-35{fill:#5562d9;}.cls-36{fill:#5461d9;}.cls-37{fill:#5460d9;}.cls-38{fill:#545fd9;}.cls-39{fill:#545ed9;}.cls-40{fill:#535dd9;}.cls-41{fill:#535cd9;}.cls-42{fill:#535bd9;}.cls-43{fill:#535ada;}.cls-44{fill:#5259da;}.cls-45{fill:#5258da;}.cls-46{fill:#5257da;}.cls-47{fill:#5256da;}.cls-48{fill:#5155da;}.cls-49{fill:#5154da;}.cls-50{fill:#5153da;}.cls-51{fill:#89b3e5;}.cls-52{fill:#edf0f4;}.cls-53{opacity:0.1;}.cls-54{fill:#b81a68;}.cls-55{fill:#ad135f;}.cls-56{fill:#fce3e9;}</style><clipPath id="clip-path"><ellipse class="cls-1" cx="353.66" cy="146.88" rx="41.19" ry="21.07"/></clipPath></defs><title>logowhite_1</title><g id="Calque_2" data-name="Calque 2"><g id="Calque_1-2" data-name="Calque 1"><path class="cls-2" d="M384.61,146.88c-7.55-4.4-18.61-7.18-30.95-7.18s-23.4,2.78-31,7.18H312.47v13.9c0,11.63,18.44,21.07,41.19,21.07s41.18-9.44,41.18-21.07v-13.9Z"/><g class="cls-3"><path class="cls-4" d="M312.47,125.81v0Z"/><rect class="cls-4" x="312.47" y="125.81" width="1.75" height="42.14"/><rect class="cls-5" x="314.22" y="125.81" width="1.75" height="42.14"/><rect class="cls-6" x="315.98" y="125.81" width="1.75" height="42.14"/><rect class="cls-7" x="317.73" y="125.81" width="1.75" height="42.14"/><rect class="cls-8" x="319.48" y="125.81" width="1.75" height="42.14"/><rect class="cls-9" x="321.23" y="125.81" width="1.75" height="42.14"/><rect class="cls-10" x="322.99" y="125.81" width="1.75" height="42.14"/><rect class="cls-11" x="324.74" y="125.81" width="1.75" height="42.14"/><rect class="cls-12" x="326.49" y="125.81" width="1.75" height="42.14"/><rect class="cls-13" x="328.24" y="125.81" width="1.75" height="42.14"/><rect class="cls-14" x="330" y="125.81" width="1.75" height="42.14"/><rect class="cls-15" x="331.75" y="125.81" width="1.75" height="42.14"/><rect class="cls-16" x="333.5" y="125.81" width="1.75" height="42.14"/><rect class="cls-17" x="335.26" y="125.81" width="1.75" height="42.14"/><rect class="cls-18" x="337.01" y="125.81" width="1.75" height="42.14"/><rect class="cls-19" x="338.76" y="125.81" width="1.75" height="42.14"/><rect class="cls-20" x="340.51" y="125.81" width="1.75" height="42.14"/><rect class="cls-21" x="342.27" y="125.81" width="1.75" height="42.14"/><rect class="cls-22" x="344.02" y="125.81" width="1.75" height="42.14"/><rect class="cls-23" x="345.77" y="125.81" width="1.75" height="42.14"/><rect class="cls-24" x="347.52" y="125.81" width="1.75" height="42.14"/><rect class="cls-25" x="349.28" y="125.81" width="1.75" height="42.14"/><rect class="cls-26" x="351.03" y="125.81" width="1.75" height="42.14"/><rect class="cls-27" x="352.78" y="125.81" width="1.75" height="42.14"/><rect class="cls-28" x="354.53" y="125.81" width="1.75" height="42.14"/><rect class="cls-29" x="356.29" y="125.81" width="1.75" height="42.14"/><rect class="cls-30" x="358.04" y="125.81" width="1.75" height="42.14"/><rect class="cls-31" x="359.79" y="125.81" width="1.75" height="42.14"/><rect class="cls-32" x="361.54" y="125.81" width="1.75" height="42.14"/><rect class="cls-33" x="363.3" y="125.81" width="1.75" height="42.14"/><rect class="cls-34" x="365.05" y="125.81" width="1.75" height="42.14"/><rect class="cls-35" x="366.8" y="125.81" width="1.75" height="42.14"/><rect class="cls-36" x="368.55" y="125.81" width="1.75" height="42.14"/><rect class="cls-37" x="370.31" y="125.81" width="1.75" height="42.14"/><rect class="cls-38" x="372.06" y="125.81" width="1.75" height="42.14"/><rect class="cls-39" x="373.81" y="125.81" width="1.75" height="42.14"/><rect class="cls-40" x="375.57" y="125.81" width="1.75" height="42.14"/><rect class="cls-41" x="377.32" y="125.81" width="1.75" height="42.14"/><rect class="cls-42" x="379.07" y="125.81" width="1.75" height="42.14"/><rect class="cls-43" x="380.82" y="125.81" width="1.75" height="42.14"/><rect class="cls-44" x="382.58" y="125.81" width="1.75" height="42.14"/><rect class="cls-45" x="384.33" y="125.81" width="1.75" height="42.14"/><rect class="cls-46" x="386.08" y="125.81" width="1.75" height="42.14"/><rect class="cls-47" x="387.83" y="125.81" width="1.75" height="42.14"/><rect class="cls-48" x="389.59" y="125.81" width="1.75" height="42.14"/><rect class="cls-49" x="391.34" y="125.81" width="1.75" height="42.14"/><rect class="cls-50" x="393.09" y="125.81" width="1.75" height="42.14"/><path class="cls-50" d="M394.84,168v0Z"/></g><path class="cls-51" d="M359.12,147.87V129.73l-43.24,25a3.28,3.28,0,0,0-.31.2c3.13,3.89,8.48,7.2,15.24,9.51l28.64-16.54Z"/><path class="cls-52" d="M344.23,60.54h19.85a0,0,0,0,1,0,0v84a5.31,5.31,0,0,1-5.31,5.31h-9.24a5.31,5.31,0,0,1-5.31-5.31v-84a0,0,0,0,1,0,0Z"/><g class="cls-53"><path d="M344.23,87.64c0,2.67,19.85-.31,19.85-3.79V60.54H344.23Z"/></g><circle class="cls-54" cx="353.66" cy="35.23" r="35.23"/><path class="cls-55" d="M362.15,59.43c-21.34,0-38.63-15.78-38.63-35.23a32.52,32.52,0,0,1,1.36-9.29,35.23,35.23,0,1,0,59,38.4A41.07,41.07,0,0,1,362.15,59.43Z"/><circle class="cls-56" cx="368.09" cy="22.5" r="9.76"/><path class="cls-52" d="M0,121H21.6c0,5.16,2.52,9.48,9.24,9.48,7.08,0,9.24-5.52,9.24-10.68V85.7H15.84V65.9H63.12V121c0,19.8-13.08,30.36-31.92,30.36C9.48,151.33,0,138.25,0,121Z"/><path class="cls-52" d="M72.72,118c0-18.72,13.44-33.47,34.8-33.47,21,0,34.8,14.75,34.8,33.47s-13.8,33.48-34.8,33.48S72.72,136.69,72.72,118Zm46.8,0c0-7.8-5.16-13.08-12-13.08s-12,5.28-12,13.08,5.16,13.08,12,13.08S119.52,125.77,119.52,118Z"/><path class="cls-52" d="M151.08,157.69h8.4c4.56,0,7.2-2.76,8.64-6.6l.36-1-25-64.07H166.8l11.64,34.79h1.08L190,86.06H213.6l-25.68,70.67c-4.8,13.08-13,20.76-27.72,20.76h-9.12Z"/><path class="cls-52" d="M215.4,129.85h20.28c.24,3.12,3.24,4.8,8.16,4.8s7.68-1.32,7.68-3.72c0-8.88-35.16,3.24-35.16-25.08,0-10.79,9-21.35,27.48-21.35,16.08,0,27.12,7.2,27.84,21.23H252.6c-.6-3-3.24-5-8.4-5-4.8,0-7.68,1.55-7.68,4.07,0,7.8,36.72-4.19,36.72,25,0,12.36-9.84,21.72-29.4,21.72S215.52,143.29,215.4,129.85Z"/><path class="cls-52" d="M290,126.49v-23h-9.6V86.3h4.68c4,0,6.12-2.76,6.12-6.72V69.38H312.6V86.06H328v17.39H312.6v21.72c0,3.84,2.76,6.36,7.44,6.36H328v18.36H313.68C298.92,149.89,290,141,290,126.49Z"/><path class="cls-52" d="M373.64,118c0-18.72,12.84-33.47,34.19-33.47,19.44,0,31.92,11.87,33.12,28h-22.8a10.27,10.27,0,0,0-10.32-7.56c-7.2,0-11.4,5.88-11.4,13.08s4.2,13.08,11.4,13.08c5.16,0,8.64-2.88,9.84-6.48h23c-1.56,15.48-13.8,26.88-32.88,26.88C386.83,151.45,373.64,136.69,373.64,118Z"/><path class="cls-52" d="M492.67,149.89l-11.4-24-7.56,8.52v15.48H451.15v-90h22.56v44.39h.72l14.28-18.23h27.6l-19.44,22.07,21,41.76Z"/></g></g></svg>