<svg xmlns="http://www.w3.org/2000/svg" xmlns:xlink="http://www.w3.org/1999/xlink" viewBox="0 0 522.07 181.85"><defs><style>.cls-1{fill:#1f3590;}.cls-2{fill:url(#Dégradé_sans_nom_4);}.cls-3{fill:#89b3e5;}.cls-4,.cls-9{fill:#edf0f4;}.cls-5{opacity:0.1;}.cls-6{fill:#b81a68;}.cls-7{fill:#ad135f;}.cls-8{fill:#fce3e9;}.cls-9{font-size:120px;font-family:Silka-Black, Silka;font-weight:800;}.cls-10{letter-spacing:-0.03em;}.cls-11{letter-spacing:-0.02em;}.cls-12{font-size:80px;}</style><linearGradient id="Dégradé_sans_nom_4" x1="315.47" y1="146.88" x2="397.84" y2="146.88" gradientUnits="userSpaceOnUse"><stop offset="0" stop-color="#5c82d7"/><stop offset="1" stop-color="#5153da"/></linearGradient></defs><title>logowhite</title><g id="Calque_2" data-name="Calque 2"><g id="Calque_1-2" data-name="Calque 1"><path class="cls-1" d="M387.61,146.88c-7.55-4.4-18.61-7.18-30.95-7.18s-23.4,2.78-31,7.18H315.47v13.9c0,11.63,18.44,21.07,41.19,21.07s41.18-9.44,41.18-21.07v-13.9Z"/><ellipse class="cls-2" cx="356.66" cy="146.88" rx="41.19" ry="21.07"/><path class="cls-3" d="M362.12,147.87V129.73l-43.24,25a3.28,3.28,0,0,0-.31.2c3.13,3.89,8.48,7.2,15.24,9.51l28.64-16.54Z"/><path class="cls-4" d="M347.23,60.54h19.85a0,0,0,0,1,0,0v84a5.31,5.31,0,0,1-5.31,5.31h-9.24a5.31,5.31,0,0,1-5.31-5.31v-84a0,0,0,0,1,0,0Z"/><path class="cls-5" d="M347.23,87.64c0,2.67,19.85-.31,19.85-3.79V60.54H347.23Z"/><circle class="cls-6" cx="356.66" cy="35.23" r="35.23"/><path class="cls-7" d="M365.15,59.43c-21.34,0-38.63-15.78-38.63-35.23a32.52,32.52,0,0,1,1.36-9.29,35.23,35.23,0,1,0,59,38.4A41.07,41.07,0,0,1,365.15,59.43Z"/><circle class="cls-8" cx="371.09" cy="22.5" r="9.76"/><text class="cls-9" transform="translate(0 149.89)">J<tspan class="cls-10" x="72.12" y="0">o</tspan><tspan class="cls-11" x="145.32" y="0">y</tspan><tspan x="215.4" y="0">st</tspan><tspan class="cls-12" x="333.36" y="0" xml:space="preserve">  </tspan><tspan x="373.04" y="0">ck</tspan></text></g></g></svg>