<?xml version="1.0" standalone="no"?>
<!DOCTYPE svg PUBLIC "-//W3C//DTD SVG 20010904//EN"
 "http://www.w3.org/TR/2001/REC-SVG-20010904/DTD/svg10.dtd">
<svg version="1.0" xmlns="http://www.w3.org/2000/svg"
 width="700.000000pt" height="700.000000pt" viewBox="0 0 700.000000 700.000000"
 preserveAspectRatio="xMidYMid meet">
<metadata>
Created by potrace 1.11, written by Peter Selinger 2001-2013
</metadata>
<g transform="translate(0.000000,700.000000) scale(0.100000,-0.100000)"
fill="#000000" stroke="none">
<path d="M0 3500 l0 -3500 3500 0 3500 0 0 3500 0 3500 -3500 0 -3500 0 0
-3500z m4087 2424 c57 -27 110 -81 145 -146 19 -35 23 -59 23 -128 0 -73 -4
-92 -27 -135 -59 -111 -155 -170 -278 -170 -123 1 -216 59 -271 170 -29 60
-31 70 -27 147 5 94 24 141 83 201 92 95 229 119 352 61z m-257 -2942 l0
-1209 -23 -43 c-31 -60 -73 -80 -164 -80 l-72 0 -382 -222 c-211 -122 -392
-223 -404 -226 -28 -5 -186 64 -280 123 -70 43 -195 148 -195 164 0 3 200 121
445 261 l444 255 1 1088 c0 598 2 1087 4 1087 3 0 35 -8 73 -17 101 -25 361
-23 463 5 41 11 78 20 83 21 4 1 7 -543 7 -1207z"/>
</g>
</svg>
